%TF.GenerationSoftware,KiCad,Pcbnew,8.0.2*%
%TF.CreationDate,2024-05-27T22:07:24-04:00*%
%TF.ProjectId,tundraSaber,74756e64-7261-4536-9162-65722e6b6963,rev?*%
%TF.SameCoordinates,Original*%
%TF.FileFunction,Legend,Bot*%
%TF.FilePolarity,Positive*%
%FSLAX46Y46*%
G04 Gerber Fmt 4.6, Leading zero omitted, Abs format (unit mm)*
G04 Created by KiCad (PCBNEW 8.0.2) date 2024-05-27 22:07:24*
%MOMM*%
%LPD*%
G01*
G04 APERTURE LIST*
%ADD10C,0.100000*%
%ADD11C,0.150000*%
%ADD12C,0.120000*%
%ADD13C,0.152400*%
%ADD14C,0.000000*%
%ADD15C,0.508000*%
G04 APERTURE END LIST*
D10*
X-9500000Y7226000D02*
X9500000Y7226000D01*
X-9500000Y77774000D02*
X9500000Y77774000D01*
D11*
X-2390419Y49916666D02*
X-2342800Y49964285D01*
X-2342800Y49964285D02*
X-2295180Y50107142D01*
X-2295180Y50107142D02*
X-2295180Y50202380D01*
X-2295180Y50202380D02*
X-2342800Y50345237D01*
X-2342800Y50345237D02*
X-2438038Y50440475D01*
X-2438038Y50440475D02*
X-2533276Y50488094D01*
X-2533276Y50488094D02*
X-2723752Y50535713D01*
X-2723752Y50535713D02*
X-2866609Y50535713D01*
X-2866609Y50535713D02*
X-3057085Y50488094D01*
X-3057085Y50488094D02*
X-3152323Y50440475D01*
X-3152323Y50440475D02*
X-3247561Y50345237D01*
X-3247561Y50345237D02*
X-3295180Y50202380D01*
X-3295180Y50202380D02*
X-3295180Y50107142D01*
X-3295180Y50107142D02*
X-3247561Y49964285D01*
X-3247561Y49964285D02*
X-3199942Y49916666D01*
X-3295180Y49583332D02*
X-3295180Y48964285D01*
X-3295180Y48964285D02*
X-2914228Y49297618D01*
X-2914228Y49297618D02*
X-2914228Y49154761D01*
X-2914228Y49154761D02*
X-2866609Y49059523D01*
X-2866609Y49059523D02*
X-2818990Y49011904D01*
X-2818990Y49011904D02*
X-2723752Y48964285D01*
X-2723752Y48964285D02*
X-2485657Y48964285D01*
X-2485657Y48964285D02*
X-2390419Y49011904D01*
X-2390419Y49011904D02*
X-2342800Y49059523D01*
X-2342800Y49059523D02*
X-2295180Y49154761D01*
X-2295180Y49154761D02*
X-2295180Y49440475D01*
X-2295180Y49440475D02*
X-2342800Y49535713D01*
X-2342800Y49535713D02*
X-2390419Y49583332D01*
X109580Y49916666D02*
X157200Y49964285D01*
X157200Y49964285D02*
X204819Y50107142D01*
X204819Y50107142D02*
X204819Y50202380D01*
X204819Y50202380D02*
X157200Y50345237D01*
X157200Y50345237D02*
X61961Y50440475D01*
X61961Y50440475D02*
X-33276Y50488094D01*
X-33276Y50488094D02*
X-223752Y50535713D01*
X-223752Y50535713D02*
X-366609Y50535713D01*
X-366609Y50535713D02*
X-557085Y50488094D01*
X-557085Y50488094D02*
X-652323Y50440475D01*
X-652323Y50440475D02*
X-747561Y50345237D01*
X-747561Y50345237D02*
X-795180Y50202380D01*
X-795180Y50202380D02*
X-795180Y50107142D01*
X-795180Y50107142D02*
X-747561Y49964285D01*
X-747561Y49964285D02*
X-699942Y49916666D01*
X-699942Y49535713D02*
X-747561Y49488094D01*
X-747561Y49488094D02*
X-795180Y49392856D01*
X-795180Y49392856D02*
X-795180Y49154761D01*
X-795180Y49154761D02*
X-747561Y49059523D01*
X-747561Y49059523D02*
X-699942Y49011904D01*
X-699942Y49011904D02*
X-604704Y48964285D01*
X-604704Y48964285D02*
X-509466Y48964285D01*
X-509466Y48964285D02*
X-366609Y49011904D01*
X-366609Y49011904D02*
X204819Y49583332D01*
X204819Y49583332D02*
X204819Y48964285D01*
X2609580Y49916666D02*
X2657200Y49964285D01*
X2657200Y49964285D02*
X2704819Y50107142D01*
X2704819Y50107142D02*
X2704819Y50202380D01*
X2704819Y50202380D02*
X2657200Y50345237D01*
X2657200Y50345237D02*
X2561961Y50440475D01*
X2561961Y50440475D02*
X2466723Y50488094D01*
X2466723Y50488094D02*
X2276247Y50535713D01*
X2276247Y50535713D02*
X2133390Y50535713D01*
X2133390Y50535713D02*
X1942914Y50488094D01*
X1942914Y50488094D02*
X1847676Y50440475D01*
X1847676Y50440475D02*
X1752438Y50345237D01*
X1752438Y50345237D02*
X1704819Y50202380D01*
X1704819Y50202380D02*
X1704819Y50107142D01*
X1704819Y50107142D02*
X1752438Y49964285D01*
X1752438Y49964285D02*
X1800057Y49916666D01*
X2704819Y48964285D02*
X2704819Y49535713D01*
X2704819Y49249999D02*
X1704819Y49249999D01*
X1704819Y49249999D02*
X1847676Y49345237D01*
X1847676Y49345237D02*
X1942914Y49440475D01*
X1942914Y49440475D02*
X1990533Y49535713D01*
X545180Y71738095D02*
X-264342Y71738095D01*
X-264342Y71738095D02*
X-359580Y71785714D01*
X-359580Y71785714D02*
X-407200Y71833333D01*
X-407200Y71833333D02*
X-454819Y71928571D01*
X-454819Y71928571D02*
X-454819Y72119047D01*
X-454819Y72119047D02*
X-407200Y72214285D01*
X-407200Y72214285D02*
X-359580Y72261904D01*
X-359580Y72261904D02*
X-264342Y72309523D01*
X-264342Y72309523D02*
X545180Y72309523D01*
X-454819Y73309523D02*
X-454819Y72738095D01*
X-454819Y73023809D02*
X545180Y73023809D01*
X545180Y73023809D02*
X402323Y72928571D01*
X402323Y72928571D02*
X307085Y72833333D01*
X307085Y72833333D02*
X259466Y72738095D01*
X6344980Y68618199D02*
X6106885Y68618199D01*
X6202123Y68380104D02*
X6106885Y68618199D01*
X6106885Y68618199D02*
X6202123Y68856294D01*
X5916409Y68475342D02*
X6106885Y68618199D01*
X6106885Y68618199D02*
X5916409Y68761056D01*
X5254619Y68618198D02*
X5492714Y68618198D01*
X5397476Y68856293D02*
X5492714Y68618198D01*
X5492714Y68618198D02*
X5397476Y68380103D01*
X5683190Y68761055D02*
X5492714Y68618198D01*
X5492714Y68618198D02*
X5683190Y68475341D01*
X333333Y55946680D02*
X333333Y55232395D01*
X333333Y55232395D02*
X380952Y55089538D01*
X380952Y55089538D02*
X476190Y54994300D01*
X476190Y54994300D02*
X619047Y54946680D01*
X619047Y54946680D02*
X714285Y54946680D01*
X-47619Y55946680D02*
X-666666Y55946680D01*
X-666666Y55946680D02*
X-333333Y55565728D01*
X-333333Y55565728D02*
X-476190Y55565728D01*
X-476190Y55565728D02*
X-571428Y55518109D01*
X-571428Y55518109D02*
X-619047Y55470490D01*
X-619047Y55470490D02*
X-666666Y55375252D01*
X-666666Y55375252D02*
X-666666Y55137157D01*
X-666666Y55137157D02*
X-619047Y55041919D01*
X-619047Y55041919D02*
X-571428Y54994300D01*
X-571428Y54994300D02*
X-476190Y54946680D01*
X-476190Y54946680D02*
X-190476Y54946680D01*
X-190476Y54946680D02*
X-95238Y54994300D01*
X-95238Y54994300D02*
X-47619Y55041919D01*
D12*
%TO.C,C3*%
X-3660000Y49038748D02*
X-3660000Y50461252D01*
X-1840000Y49038748D02*
X-1840000Y50461252D01*
%TO.C,C2*%
X-1160000Y49038748D02*
X-1160000Y50461252D01*
X660000Y49038748D02*
X660000Y50461252D01*
%TO.C,C1*%
X1340000Y49038748D02*
X1340000Y50461252D01*
X3160000Y49038748D02*
X3160000Y50461252D01*
D13*
%TO.C,U1*%
X5377000Y75426999D02*
X4773640Y75426999D01*
X-5377000Y69573001D02*
X-4773638Y69573001D01*
X4773640Y69573001D02*
X5377000Y69573001D01*
X5377000Y69573001D02*
X5377000Y75426999D01*
X-4773640Y75426999D02*
X-5377000Y75426999D01*
X-5377000Y75426999D02*
X-5377000Y69573001D01*
D14*
G36*
X-784499Y77209602D02*
G01*
X-1165499Y77209602D01*
X-1165499Y77463602D01*
X-784499Y77463602D01*
X-784499Y77209602D01*
G37*
G36*
X-1434498Y67536398D02*
G01*
X-1815498Y67536398D01*
X-1815498Y67790398D01*
X-1434498Y67790398D01*
X-1434498Y67536398D01*
G37*
D13*
%TO.C,J3*%
X-3124200Y54896500D02*
X-2162940Y54896500D01*
X3124200Y54896500D02*
X3124200Y57991261D01*
X1819559Y60103500D02*
X-1819559Y60103500D01*
X-3124200Y57991261D02*
X-3124200Y54896500D01*
X2162940Y54896500D02*
X3124200Y54896500D01*
D15*
X-3378200Y55401500D02*
G75*
G02*
X-4140200Y55401500I-381000J0D01*
G01*
X-4140200Y55401500D02*
G75*
G02*
X-3378200Y55401500I381000J0D01*
G01*
%TO.C,J2*%
X-7309000Y52250001D02*
G75*
G02*
X-8071000Y52250001I-381000J0D01*
G01*
X-8071000Y52250001D02*
G75*
G02*
X-7309000Y52250001I381000J0D01*
G01*
%TO.C,J1*%
X-7309000Y66250001D02*
G75*
G02*
X-8071000Y66250001I-381000J0D01*
G01*
X-8071000Y66250001D02*
G75*
G02*
X-7309000Y66250001I381000J0D01*
G01*
%TD*%
M02*
