%TF.GenerationSoftware,KiCad,Pcbnew,8.0.2*%
%TF.CreationDate,2024-05-27T22:07:24-04:00*%
%TF.ProjectId,tundraSaber,74756e64-7261-4536-9162-65722e6b6963,rev?*%
%TF.SameCoordinates,Original*%
%TF.FileFunction,Soldermask,Bot*%
%TF.FilePolarity,Negative*%
%FSLAX46Y46*%
G04 Gerber Fmt 4.6, Leading zero omitted, Abs format (unit mm)*
G04 Created by KiCad (PCBNEW 8.0.2) date 2024-05-27 22:07:24*
%MOMM*%
%LPD*%
G01*
G04 APERTURE LIST*
G04 Aperture macros list*
%AMRoundRect*
0 Rectangle with rounded corners*
0 $1 Rounding radius*
0 $2 $3 $4 $5 $6 $7 $8 $9 X,Y pos of 4 corners*
0 Add a 4 corners polygon primitive as box body*
4,1,4,$2,$3,$4,$5,$6,$7,$8,$9,$2,$3,0*
0 Add four circle primitives for the rounded corners*
1,1,$1+$1,$2,$3*
1,1,$1+$1,$4,$5*
1,1,$1+$1,$6,$7*
1,1,$1+$1,$8,$9*
0 Add four rect primitives between the rounded corners*
20,1,$1+$1,$2,$3,$4,$5,0*
20,1,$1+$1,$4,$5,$6,$7,0*
20,1,$1+$1,$6,$7,$8,$9,0*
20,1,$1+$1,$8,$9,$2,$3,0*%
G04 Aperture macros list end*
%ADD10RoundRect,0.272087X-0.678713X0.353713X-0.678713X-0.353713X0.678713X-0.353713X0.678713X0.353713X0*%
%ADD11C,1.409700*%
%ADD12RoundRect,0.050800X-0.850000X-0.850000X0.850000X-0.850000X0.850000X0.850000X-0.850000X0.850000X0*%
%ADD13C,1.801600*%
%ADD14RoundRect,0.050800X0.215900X-0.827800X0.215900X0.827800X-0.215900X0.827800X-0.215900X-0.827800X0*%
%ADD15RoundRect,0.050800X0.647700X-0.952500X0.647700X0.952500X-0.647700X0.952500X-0.647700X-0.952500X0*%
%ADD16RoundRect,0.050800X0.330200X0.774700X-0.330200X0.774700X-0.330200X-0.774700X0.330200X-0.774700X0*%
%ADD17C,1.803400*%
%ADD18C,1.600200*%
G04 APERTURE END LIST*
D10*
%TO.C,C3*%
X-2750000Y51225000D03*
X-2750000Y48275000D03*
%TD*%
%TO.C,C2*%
X-250000Y51225000D03*
X-250000Y48275000D03*
%TD*%
%TO.C,C1*%
X2250000Y51225000D03*
X2250000Y48275000D03*
%TD*%
D11*
%TO.C,SW3*%
X3810000Y21310000D03*
X1270000Y21310000D03*
X-1270000Y21310000D03*
X-3810000Y21310000D03*
X-3810000Y13690000D03*
X-1270000Y13690000D03*
X1270000Y13690000D03*
X3810000Y13690000D03*
%TD*%
D12*
%TO.C,SW1*%
X-3250000Y39250000D03*
D13*
X3250000Y39250000D03*
X-3250000Y34750000D03*
X3250000Y34750000D03*
%TD*%
D12*
%TO.C,SW2*%
X-3250000Y29250000D03*
D13*
X3250000Y29250000D03*
X-3250000Y24750000D03*
X3250000Y24750000D03*
%TD*%
D14*
%TO.C,U1*%
X4225000Y76127801D03*
X3574999Y76127801D03*
X2925000Y76127801D03*
X2274999Y76127801D03*
X1625001Y76127801D03*
X974999Y76127801D03*
X325001Y76127801D03*
X-325001Y76127801D03*
X-974999Y76127801D03*
X-1625001Y76127801D03*
X-2274999Y76127801D03*
X-2925000Y76127801D03*
X-3574999Y76127801D03*
X-4225000Y76127801D03*
X-4224998Y68872199D03*
X-3574999Y68872199D03*
X-2924998Y68872199D03*
X-2274999Y68872199D03*
X-1624998Y68872199D03*
X-974999Y68872199D03*
X-324998Y68872199D03*
X325001Y68872199D03*
X974999Y68872199D03*
X1625001Y68872199D03*
X2274999Y68872199D03*
X2925000Y68872199D03*
X3574999Y68872199D03*
X4225000Y68872199D03*
%TD*%
D15*
%TO.C,J3*%
X-2799999Y59276501D03*
X2799999Y59276501D03*
D16*
X1500000Y55401500D03*
X499999Y55401500D03*
X-499999Y55401500D03*
X-1500000Y55401500D03*
%TD*%
D17*
%TO.C,J2*%
X5150000Y52250001D03*
D18*
X5150000Y48550000D03*
D17*
X5150000Y45749999D03*
X-5150000Y52250001D03*
D18*
X-5150000Y48550000D03*
D17*
X-5150000Y45749999D03*
%TD*%
%TO.C,J1*%
X-5150000Y59749999D03*
D18*
X-5150000Y62550000D03*
D17*
X-5150000Y66250001D03*
X5150000Y59749999D03*
D18*
X5150000Y62550000D03*
D17*
X5150000Y66250001D03*
%TD*%
M02*
