M48
; DRILL file {KiCad 8.0.2} date 2024-05-27T22:07:20-0400
; FORMAT={-:-/ absolute / inch / decimal}
; #@! TF.CreationDate,2024-05-27T22:07:20-04:00
; #@! TF.GenerationSoftware,Kicad,Pcbnew,8.0.2
; #@! TF.FileFunction,Plated,1,2,PTH
FMAT,2
INCH
; #@! TA.AperFunction,Plated,PTH,ViaDrill
T1C0.0118
; #@! TA.AperFunction,Plated,PTH,ComponentDrill
T2C0.0320
; #@! TA.AperFunction,Plated,PTH,ComponentDrill
T3C0.0390
; #@! TA.AperFunction,Plated,PTH,ComponentDrill
T4C0.0394
; #@! TA.AperFunction,Plated,PTH,ComponentDrill
T5C0.0470
%
G90
G05
T1
X-0.3346Y3.3071
X-0.3346Y3.2677
X-0.3346Y0.0787
X-0.3346Y0.0394
X-0.2953Y3.3071
X-0.2953Y0.0394
X-0.2421Y3.0217
X-0.2421Y2.9902
X-0.2362Y2.2835
X-0.2362Y2.2441
X-0.1969Y2.2835
X-0.1673Y2.7854
X-0.128Y2.7854
X-0.0787Y2.6476
X-0.0384Y2.6476
X-0.0197Y2.2441
X-0.0098Y2.9429
X-0.0098Y2.9114
X-0.0098Y2.8799
X-0.0098Y2.8484
X0.1772Y2.2835
X0.2165Y2.2835
X0.2165Y2.2441
X0.2953Y3.3071
X0.2953Y0.0394
X0.3346Y3.3071
X0.3346Y3.2677
X0.3346Y0.0787
X0.3346Y0.0394
T2
X-0.15Y0.839
X-0.15Y0.539
X-0.05Y0.839
X-0.05Y0.539
X0.05Y0.839
X0.05Y0.539
X0.15Y0.839
X0.15Y0.539
T3
X-0.2028Y2.4626
X-0.2028Y1.9114
X0.2028Y2.4626
X0.2028Y1.9114
T4
X-0.128Y1.5453
X-0.128Y1.3681
X-0.128Y1.1516
X-0.128Y0.9744
X0.128Y1.5453
X0.128Y1.3681
X0.128Y1.1516
X0.128Y0.9744
T5
X-0.2028Y2.6083
X-0.2028Y2.3524
X-0.2028Y2.0571
X-0.2028Y1.8012
X0.2028Y2.6083
X0.2028Y2.3524
X0.2028Y2.0571
X0.2028Y1.8012
M30
