%TF.GenerationSoftware,KiCad,Pcbnew,8.0.2*%
%TF.CreationDate,2024-05-27T22:07:11-04:00*%
%TF.ProjectId,tundraSaber,74756e64-7261-4536-9162-65722e6b6963,rev?*%
%TF.SameCoordinates,Original*%
%TF.FileFunction,Drillmap*%
%TF.FilePolarity,Positive*%
%FSLAX45Y45*%
G04 Gerber Fmt 4.5, Leading zero omitted, Abs format (unit mm)*
G04 Created by KiCad (PCBNEW 8.0.2) date 2024-05-27 22:07:11*
%MOMM*%
%LPD*%
G01*
G04 APERTURE LIST*
%ADD10C,0.050000*%
%ADD11C,0.200000*%
G04 APERTURE END LIST*
D10*
X175000Y8138700D02*
G75*
G02*
X-175000Y8138700I-175000J0D01*
G01*
X-175000Y8138700D02*
G75*
G02*
X175000Y8138700I175000J0D01*
G01*
X175000Y361300D02*
G75*
G02*
X-175000Y361300I-175000J0D01*
G01*
X-175000Y361300D02*
G75*
G02*
X175000Y361300I175000J0D01*
G01*
X-950000Y8500000D02*
X950000Y8500000D01*
X950000Y0D01*
X-950000Y0D01*
X-950000Y8500000D01*
D11*
X-691723Y-313984D02*
X-691723Y-113984D01*
X-691723Y-113984D02*
X-644104Y-113984D01*
X-644104Y-113984D02*
X-615533Y-123508D01*
X-615533Y-123508D02*
X-596485Y-142555D01*
X-596485Y-142555D02*
X-586961Y-161603D01*
X-586961Y-161603D02*
X-577437Y-199698D01*
X-577437Y-199698D02*
X-577437Y-228269D01*
X-577437Y-228269D02*
X-586961Y-266365D01*
X-586961Y-266365D02*
X-596485Y-285412D01*
X-596485Y-285412D02*
X-615533Y-304460D01*
X-615533Y-304460D02*
X-644104Y-313984D01*
X-644104Y-313984D02*
X-691723Y-313984D01*
X-491723Y-313984D02*
X-491723Y-180650D01*
X-491723Y-218746D02*
X-482199Y-199698D01*
X-482199Y-199698D02*
X-472675Y-190174D01*
X-472675Y-190174D02*
X-453628Y-180650D01*
X-453628Y-180650D02*
X-434580Y-180650D01*
X-367914Y-313984D02*
X-367914Y-180650D01*
X-367914Y-113984D02*
X-377437Y-123508D01*
X-377437Y-123508D02*
X-367914Y-133031D01*
X-367914Y-133031D02*
X-358390Y-123508D01*
X-358390Y-123508D02*
X-367914Y-113984D01*
X-367914Y-113984D02*
X-367914Y-133031D01*
X-244104Y-313984D02*
X-263152Y-304460D01*
X-263152Y-304460D02*
X-272676Y-285412D01*
X-272676Y-285412D02*
X-272676Y-113984D01*
X-139342Y-313984D02*
X-158390Y-304460D01*
X-158390Y-304460D02*
X-167914Y-285412D01*
X-167914Y-285412D02*
X-167914Y-113984D01*
X89229Y-313984D02*
X89229Y-113984D01*
X89229Y-113984D02*
X155896Y-256841D01*
X155896Y-256841D02*
X222562Y-113984D01*
X222562Y-113984D02*
X222562Y-313984D01*
X403515Y-313984D02*
X403515Y-209222D01*
X403515Y-209222D02*
X393991Y-190174D01*
X393991Y-190174D02*
X374943Y-180650D01*
X374943Y-180650D02*
X336848Y-180650D01*
X336848Y-180650D02*
X317801Y-190174D01*
X403515Y-304460D02*
X384467Y-313984D01*
X384467Y-313984D02*
X336848Y-313984D01*
X336848Y-313984D02*
X317801Y-304460D01*
X317801Y-304460D02*
X308277Y-285412D01*
X308277Y-285412D02*
X308277Y-266365D01*
X308277Y-266365D02*
X317801Y-247317D01*
X317801Y-247317D02*
X336848Y-237793D01*
X336848Y-237793D02*
X384467Y-237793D01*
X384467Y-237793D02*
X403515Y-228269D01*
X498753Y-180650D02*
X498753Y-380650D01*
X498753Y-190174D02*
X517801Y-180650D01*
X517801Y-180650D02*
X555896Y-180650D01*
X555896Y-180650D02*
X574944Y-190174D01*
X574944Y-190174D02*
X584467Y-199698D01*
X584467Y-199698D02*
X593991Y-218746D01*
X593991Y-218746D02*
X593991Y-275889D01*
X593991Y-275889D02*
X584467Y-294936D01*
X584467Y-294936D02*
X574944Y-304460D01*
X574944Y-304460D02*
X555896Y-313984D01*
X555896Y-313984D02*
X517801Y-313984D01*
X517801Y-313984D02*
X498753Y-304460D01*
X679705Y-294936D02*
X689229Y-304460D01*
X689229Y-304460D02*
X679705Y-313984D01*
X679705Y-313984D02*
X670182Y-304460D01*
X670182Y-304460D02*
X679705Y-294936D01*
X679705Y-294936D02*
X679705Y-313984D01*
X679705Y-190174D02*
X689229Y-199698D01*
X689229Y-199698D02*
X679705Y-209222D01*
X679705Y-209222D02*
X670182Y-199698D01*
X670182Y-199698D02*
X679705Y-190174D01*
X679705Y-190174D02*
X679705Y-209222D01*
M02*
